<svg xmlns="http://www.w3.org/2000/svg" viewBox="0 0 1000 1000"><title>Highlight-inator</title><path d="M463.58761,767.38006l-8.24893,102.83671,89.63841,1.64979-2.92562,97.4914q-17.45473.396-35.5694.39595c-37.06521,0-72.40365-1.36383-104.69547-3.82751.68191-5.95023,1.35282-12.08744,2.19971-18.41162a462.4307,462.4307,0,0,0,4.05848-66.84936c-90.22134,0-147.381-21.44723-163.22991-32.11585q1.73228-7.952,3.47555-15.91494c4.12447,17.13578,83.5452,34.28257,183.4013,34.28257,5.16933,0,9.34879-44.52225,9.34879-99.53714-95.21469,0-161.43714-18.69759-172.24874-28.73929q5.55978-25.5057,11.11956-51.00041c0,16.01393,102.08881,28.99226,228.69345,29.14624,117.87177-.154,212.89949-13.13231,212.89949-29.14624l11.46052,54.89391C669.261,767.38006,612.48637,767.38006,463.58761,767.38006Z" style="fill:#93a9a6"/><path d="M732.9648,742.53427l6.63215,31.77489-24.14188,42.83947,7.996,133.8747c-41.37665,9.81073-106.37825,16.67384-181.39956,18.33463l2.92562-97.4914-89.63841-1.64979,8.24893-102.83671C612.48637,767.38006,669.261,767.38006,732.9648,742.53427ZM685.209,877.07988V788.18937a4.51093,4.51093,0,0,0-4.49841-4.49842h-.90189a4.51094,4.51094,0,0,0-4.49842,4.49842v88.89051a4.51094,4.51094,0,0,0,4.49842,4.49842h.90189A4.51093,4.51093,0,0,0,685.209,877.07988Zm-14.84808,3.21159V791.401a4.51093,4.51093,0,0,0-4.49842-4.49841h-.90188a4.51093,4.51093,0,0,0-4.49842,4.49841v88.89052a4.51094,4.51094,0,0,0,4.49842,4.49842h.90188A4.51094,4.51094,0,0,0,670.36089,880.29147Zm-17.04779,1.92475V793.32571a4.51094,4.51094,0,0,0-4.49842-4.49842h-.90189a4.51094,4.51094,0,0,0-4.49842,4.49842v88.89051a4.51094,4.51094,0,0,0,4.49842,4.49842h.90189A4.51094,4.51094,0,0,0,653.3131,882.21622ZM518.30554,821.14111a15.81046,15.81046,0,1,0-15.805,15.805A15.81623,15.81623,0,0,0,518.30554,821.14111Z" style="fill:#93a9a6"/><path d="M723.451,951.02333l-7.996-133.8747L739.597,774.30916l31.40094,150.35058v1.29783C770.99789,935.28436,753.42216,943.92925,723.451,951.02333Z" style="fill:#93a9a6"/><path d="M441.04052,767.38006c0,55.01489-4.17946,99.53714-9.34879,99.53714-99.8561,0-179.27683-17.14679-183.4013-34.28257q10.24518-47.00243,20.50135-93.99386C279.60338,748.68247,345.82583,767.38006,441.04052,767.38006Zm-67.64126,42.48751c0-13.74823-6.98409-24.88979-15.607-24.88979-8.61189,0-15.607,11.14156-15.607,24.88979,0,13.73722,6.99509,24.87878,15.607,24.87878C366.41517,834.74635,373.39926,823.60479,373.39926,809.86757Z" style="fill:#93a9a6"/><path d="M408.04479,880.66542a462.4307,462.4307,0,0,1-4.05848,66.84936c-.84689,6.32418-1.5178,12.46139-2.19971,18.41162-.64892-.055-1.28684-.099-1.92476-.154Z" style="fill:#93a9a6"/><path d="M408.04479,880.66542l-8.183,85.107c-99.98808-7.809-170.17-26.2976-170.17-47.87681q7.556-34.67852,15.123-69.346C260.66383,859.21819,317.82345,880.66542,408.04479,880.66542Z" style="fill:#93a9a6"/><path d="M721.50428,687.64036c0,16.01393-95.02772,28.99226-212.89949,29.14624-126.60464-.154-228.69345-13.13231-228.69345-29.14624,0-13.36327,141.18876-22.37111,219.69662-22.37111S721.50428,674.27709,721.50428,687.64036ZM592.271,690.522c0-7.06109-37.42816-11.68049-83.5892-11.68049s-83.5892,4.6194-83.5892,11.68049c0,7.07209,37.42817,12.79135,83.5892,12.79135S592.271,697.59408,592.271,690.522Z" style="fill:#93a9a6"/><path d="M782.27143,937.858c7.468,24.17488-15.552,39.056-56.73067,48.16278L723.451,951.02333c29.97113-7.09408,47.54686-15.739,47.54686-25.06576C776.81614,930.027,781.05059,933.89854,782.27143,937.858Z" style="fill:#93a9a6"/><path d="M723.451,951.02333l2.08973,34.99748c-45.09417,9.97571-111.95453,13.02231-184.40217,13.77022l.91288-30.43307C617.07278,967.69717,682.07438,960.83406,723.451,951.02333Z" style="fill:#93a9a6"/><rect x="675.31025" y="783.69095" width="9.89872" height="97.88735" rx="4.49842" style="fill:#93a9a6"/><rect x="660.46217" y="786.90254" width="9.89872" height="97.88735" rx="4.49842" style="fill:#93a9a6"/><rect x="643.41437" y="788.82729" width="9.89872" height="97.88735" rx="4.49842" style="fill:#93a9a6"/><path d="M508.68178,678.8415c46.161,0,83.5892,4.6194,83.5892,11.68049,0,7.07209-37.42816,12.79135-83.5892,12.79135s-83.5892-5.71926-83.5892-12.79135C425.09258,683.4609,462.52075,678.8415,508.68178,678.8415Z" style="fill:#93a9a6"/><path d="M542.05147,969.358l-.91288,30.43307c-14.89208.154-30.01512.209-45.23715.209-34.42556,0-67.87223-1.08886-99.02021-3.18959l.011-.154c2.35369-9.56876,3.62953-19.83044,4.89437-30.73,32.29182,2.46368,67.63026,3.82751,104.69547,3.82751Q524.58023,969.75391,542.05147,969.358Z" style="fill:#93a9a6"/><path d="M502.50058,805.32515a15.81046,15.81046,0,1,1-15.81595,15.816A15.81623,15.81623,0,0,1,502.50058,805.32515Z" style="fill:#93a9a6"/><path d="M399.86184,965.77242c.63792.055,1.27584.099,1.92476.154-1.26484,10.89959-2.54068,21.16127-4.89437,30.73Z" style="fill:#93a9a6"/><path d="M399.86184,965.77242l-2.96961,30.884-.011.154c-110.84368-7.523-192.51912-28.04637-185.16107-58.95238,1.84776-7.776,8.98583-14.93607,17.97167-19.96242C229.69183,939.47482,299.87376,957.96343,399.86184,965.77242Z" style="fill:#93a9a6"/><path d="M357.79228,784.97778c8.62289,0,15.607,11.14156,15.607,24.88979,0,13.73722-6.98409,24.87878-15.607,24.87878-8.61189,0-15.607-11.14156-15.607-24.87878C342.1853,796.11934,349.18039,784.97778,357.79228,784.97778Z" style="fill:#93a9a6"/><path d="M541.13859,999.791c-14.89208.154-30.01512.209-45.23715.209-34.42556,0-67.87223-1.08886-99.02021-3.18959-110.84368-7.523-192.51912-28.04637-185.16107-58.95238,1.84776-7.776,8.98583-14.93607,17.97167-19.96242q7.556-34.67852,15.123-69.346,1.73228-7.952,3.47555-15.91494,10.24518-47.00243,20.50135-93.99386,5.55978-25.5057,11.11956-51.00041c0-13.36327,141.18876-22.37111,219.69662-22.37111s221.89632,9.00784,221.89632,22.37111l11.46052,54.89391,6.63215,31.77489,31.40094,150.35058v1.29783c5.81825,4.06947,10.0527,7.941,11.27354,11.90046,7.468,24.17488-15.552,39.056-56.73067,48.16278C680.44659,995.99652,613.58623,999.04312,541.13859,999.791Z" style="fill:none;stroke:#000;stroke-miterlimit:10;stroke-width:3px"/><path d="M229.69183,917.89561c0,21.57921,70.18193,40.06782,170.17,47.87681.63792.055,1.27584.099,1.92476.154,32.29182,2.46368,67.63026,3.82751,104.69547,3.82751" style="fill:none;stroke:#000;stroke-miterlimit:10;stroke-width:3px"/><path d="M770.99789,925.95757c0,9.32679-17.57573,17.97168-47.54686,25.06576-41.37665,9.81073-106.37825,16.67384-181.39956,18.33463q-17.45473.396-35.5694.39595" style="fill:none;stroke:#000;stroke-miterlimit:10;stroke-width:3px"/><path d="M408.04479,880.66542c-90.22134,0-147.381-21.44723-163.22991-32.11585" style="fill:none;stroke:#000;stroke-miterlimit:10;stroke-width:3px"/><path d="M408.04479,880.66542a462.4307,462.4307,0,0,1-4.05848,66.84936c-.84689,6.32418-1.5178,12.46139-2.19971,18.41162-1.26484,10.89959-2.54068,21.16127-4.89437,30.73" style="fill:none;stroke:#000;stroke-miterlimit:10;stroke-width:3px"/><path d="M431.69173,866.9172c-99.8561,0-179.27683-17.14679-183.4013-34.28257" style="fill:none;stroke:#000;stroke-miterlimit:10;stroke-width:3px"/><path d="M441.04052,767.38006c0,55.01489-4.17946,99.53714-9.34879,99.53714" style="fill:none;stroke:#000;stroke-miterlimit:10;stroke-width:3px"/><path d="M441.04052,767.38006c-95.21469,0-161.43714-18.69759-172.24874-28.73929" style="fill:none;stroke:#000;stroke-miterlimit:10;stroke-width:3px"/><path d="M732.9648,742.53427c-63.70377,24.84579-120.47843,24.84579-269.37719,24.84579" style="fill:none;stroke:#000;stroke-miterlimit:10;stroke-width:3px"/><line x1="463.58761" y1="767.38006" x2="455.33868" y2="870.21677" style="fill:none;stroke:#000;stroke-miterlimit:10;stroke-width:3px"/><line x1="544.97709" y1="871.86656" x2="455.33868" y2="870.21677" style="fill:none;stroke:#000;stroke-miterlimit:10;stroke-width:3px"/><polyline points="541.139 999.791 542.051 969.358 544.977 871.867" style="fill:none;stroke:#000;stroke-miterlimit:10;stroke-width:3px"/><line x1="739.59695" y1="774.30916" x2="715.45507" y2="817.14863" style="fill:none;stroke:#000;stroke-miterlimit:10;stroke-width:3px"/><polyline points="725.541 986.021 723.451 951.023 715.455 817.149" style="fill:none;stroke:#000;stroke-miterlimit:10;stroke-width:3px"/><path d="M518.30554,821.14111a15.81046,15.81046,0,1,1-15.805-15.816A15.81388,15.81388,0,0,1,518.30554,821.14111Z" style="fill:none;stroke:#000;stroke-miterlimit:10;stroke-width:3px"/><path d="M373.39926,809.86757c0,13.73722-6.98409,24.87878-15.607,24.87878-8.61189,0-15.607-11.14156-15.607-24.87878,0-13.74823,6.99509-24.88979,15.607-24.88979C366.41517,784.97778,373.39926,796.11934,373.39926,809.86757Z" style="fill:none;stroke:#000;stroke-miterlimit:10;stroke-width:3px"/><rect x="643.41437" y="788.82729" width="9.89872" height="97.88735" rx="4.49842" style="fill:none;stroke:#000;stroke-miterlimit:10;stroke-width:3px"/><rect x="660.46217" y="786.90254" width="9.89872" height="97.88735" rx="4.49842" style="fill:none;stroke:#000;stroke-miterlimit:10;stroke-width:3px"/><rect x="675.31025" y="783.69095" width="9.89872" height="97.88735" rx="4.49842" style="fill:none;stroke:#000;stroke-miterlimit:10;stroke-width:3px"/><path d="M510.8815,716.7866h-2.27671c-126.60464-.154-228.69345-13.13231-228.69345-29.14624" style="fill:none;stroke:#000;stroke-miterlimit:10;stroke-width:3px"/><path d="M721.50428,687.64036c0,16.01393-95.02772,28.99226-212.89949,29.14624h-2.12272" style="fill:none;stroke:#000;stroke-miterlimit:10;stroke-width:3px"/><path d="M592.271,690.522c0,7.07209-37.42816,12.79135-83.5892,12.79135s-83.5892-5.71926-83.5892-12.79135c0-7.06109,37.42817-11.68049,83.5892-11.68049S592.271,683.4609,592.271,690.522Z" style="fill:none;stroke:#000;stroke-miterlimit:10;stroke-width:3px"/><g style="opacity:0.24"><path d="M724.88,574.64a5.98944,5.98944,0,0,1,.08.95c-60,27.86-95.3,49.05-132.69,116.05,0,5.84-39.3,10.57-87.87,10.57-43.84,0-79.31-4.73-79.31-10.57-34.29-61.47-66.85-84.38-118.32-109.26,31.34,11.54,100.33,24.03,197.84,24.03C626.25,606.41,704.07,590.04,724.88,574.64Z" style="fill:#86ff6c"/><path d="M502.5,551.46c121.37,0,219.26,4.06,222.38,23.18-20.81,15.4-98.63,31.77-220.27,31.77-97.51,0-166.5-12.49-197.84-24.03-4.63-2.24-9.41-4.49-14.36-6.79C292.41,555.65,386.78,551.46,502.5,551.46Z" style="fill:#86ff6c"/><path d="M292.41,575.59c0-19.94,94.37-24.13,210.09-24.13" style="fill:none;stroke:#000;stroke-miterlimit:10;stroke-width:3px"/><path d="M724.96,575.59a5.98944,5.98944,0,0,0-.08-.95c-3.12-19.12-101.01-23.18-222.38-23.18" style="fill:none;stroke:#000;stroke-miterlimit:10;stroke-width:3px"/><path d="M425.09,691.64c-34.29-61.47-66.85-84.38-118.32-109.26-4.63-2.24-9.41-4.49-14.36-6.79" style="fill:none;stroke:#000;stroke-miterlimit:10;stroke-width:3px"/><path d="M724.96,575.59c-60,27.86-95.3,49.05-132.69,116.05" style="fill:none;stroke:#000;stroke-miterlimit:10;stroke-width:3px"/><path d="M292.41,575.59a69.67265,69.67265,0,0,0,14.36,6.79c31.34,11.54,100.33,24.03,197.84,24.03" style="fill:none;stroke:#000;stroke-miterlimit:10;stroke-width:3px"/><path d="M504.61,606.41c121.64,0,199.46-16.37,220.27-31.77a.35082.35082,0,0,0,.08-.05" style="fill:none;stroke:#000;stroke-miterlimit:10;stroke-width:3px"/><path d="M425.09,691.64c0,5.84,35.47,10.57,79.31,10.57" style="fill:none;stroke:#000;stroke-miterlimit:10;stroke-width:3px"/><path d="M504.4,702.21c48.57,0,87.87-4.73,87.87-10.57" style="fill:none;stroke:#000;stroke-miterlimit:10;stroke-width:3px"/></g><path d="M292.40741,575.59315c0-20.66722,93.965-24.1301,210.08771-24.1301" style="fill:none;stroke:#000;stroke-miterlimit:10;stroke-width:3px"/><path d="M724.95622,574.59315c0-19.66722-99.49921-23.1301-222.4611-23.1301" style="fill:none;stroke:#000;stroke-miterlimit:10;stroke-width:3px"/><path d="M625.66838,393.30483c17.38374,15.032,28.85522,40.8533,28.85522,70.19324,0,46.40652-28.71161,84.02842-64.13136,84.02842s-64.13137-37.6219-64.13137-84.02842c.6762-5.58913,1.09509-11.274,1.30453-16.93494,1.41224-38.2622-6.81586-75.70458-10.96283-76.95525-1.24469.17952-2.01065,1.28658-2.47741,3.02795,6.04392-73.11347,15.46286-103.05181,19.02339-130.417C554.08683,327.085,586.57439,353.33717,625.66838,393.30483Zm7.61773,72.88009c0-31.03941-19.20291-56.20246-42.89387-56.20246s-42.89388,25.163-42.89388,56.20246c0,31.0454,19.20291,56.20844,42.89388,56.20844S633.28611,497.23032,633.28611,466.18492Z" style="fill:red"/><path d="M474.54647,221.68147a29.04154,29.04154,0,0,1,4.29657-3.6443v-.006a34.18866,34.18866,0,0,1,19.59785-5.9781c11.39369,0,21.48883,4.75734,27.814,12.11178a27.5402,27.5402,0,0,1,6.89366,18.054c-3.56053,27.36519-12.97947,57.30353-19.02339,130.417a39.87885,39.87885,0,0,0-.72407,9.19154v.59242c5.98408,114.50534-28.12517,213.93079-78.39142,211.14221-39.02816,0-70.61213-58.1772-70.61213-130.06393,4.18886-58.73373,16.157-81.07828,32.314-102.86032,31.71561-35.19236,77.8349-57.53691,70.61212-121.77A24.59681,24.59681,0,0,1,474.54647,221.68147Zm-7.22278,236.14369c0-36.43107,11.51935-56.79488,7.22278-65.90863,0-17.288-15.00208-31.27878-33.55273-31.27878-31.75151,0-57.44715,43.46834-57.44715,97.18741,0,68.70919,21.85386,113.3923,48.854,113.3923,21.29733,0,39.01619-10.61576,38.53746-36.86791C468.93939,534.34955,462.53642,503.62729,467.32369,457.82516Z" style="fill:red"/><path d="M526.26087,224.16487h-.006c-6.32517-7.35444-16.42031-12.11178-27.814-12.11178a34.18866,34.18866,0,0,0-19.59785,5.9781C489.1536,109.22269,495.08981,18.157,504.64638,21.56792a.022.022,0,0,0,.01795.006,6.29176,6.29176,0,0,1,.86171.56849C520.971,33.89512,526.26087,126.20551,526.26087,224.16487Z" style="fill:#e6e6e6"/><path d="M504.64638,21.56792C495.08981,18.157,489.1536,109.22269,478.843,218.03119v.006a29.04154,29.04154,0,0,0-4.29657,3.6443c0-110.29852,10.68756-199.53908,23.89442-199.53908C500.667,20.65834,502.73148,20.50874,504.64638,21.56792Z" style="fill:#e6e6e6"/><path d="M527.5654,446.56313a109.50267,109.50267,0,0,0-1.30453,16.93494" style="fill:none;stroke:#000;stroke-miterlimit:10;stroke-width:3px"/><path d="M625.66838,393.30483c17.38374,15.032,28.85522,40.8533,28.85522,70.19324,0,46.40652-28.71161,84.02842-64.13136,84.02842s-64.13137-37.6219-64.13137-84.02842c.6762-5.58913,1.09509-11.274,1.30453-16.93494,1.41224-38.2622-6.81586-75.70458-10.96283-76.95525-1.24469.17952-2.01065,1.28658-2.47741,3.02795,6.04392-73.11347,15.46286-103.05181,19.02339-130.417C554.08683,327.085,586.57439,353.33717,625.66838,393.30483Z" style="fill:none;stroke:#000;stroke-miterlimit:10;stroke-width:3px"/><path d="M633.28611,466.18492c0-31.03941-19.20291-56.20246-42.89387-56.20246s-42.89388,25.163-42.89388,56.20246c0,31.0454,19.20291,56.20844,42.89388,56.20844S633.28611,497.23032,633.28611,466.18492Z" style="fill:none;stroke:#000;stroke-miterlimit:10;stroke-width:3px"/><path d="M625.66838,393.30483c.012.018.02992.02992.04188.04787" style="fill:none;stroke:#000;stroke-miterlimit:10;stroke-width:3px"/><path d="M516.39313,369.572a.67017.67017,0,0,1,.20944.0359" style="fill:none;stroke:#000;stroke-miterlimit:10;stroke-width:3px"/><path d="M516.60257,369.60788a2.04423,2.04423,0,0,1,.389-.0359" style="fill:none;stroke:#000;stroke-miterlimit:10;stroke-width:3px"/><path d="M513.40109,381.82737a39.87885,39.87885,0,0,1,.72407-9.19154" style="fill:none;stroke:#000;stroke-miterlimit:10;stroke-width:3px"/><path d="M513.40109,382.41979v-.55652" style="fill:none;stroke:#000;stroke-miterlimit:10;stroke-width:3px"/><path d="M435.00967,593.562c50.26625,2.78858,84.3755-96.63687,78.39142-211.14221" style="fill:none;stroke:#000;stroke-miterlimit:10;stroke-width:3px"/><path d="M364.39754,463.49807c0,71.88673,31.584,130.06393,70.61213,130.06393" style="fill:none;stroke:#000;stroke-miterlimit:10;stroke-width:3px"/><path d="M396.71157,360.63775c-16.157,21.782-28.12517,44.12659-32.314,102.86032" style="fill:none;stroke:#000;stroke-miterlimit:10;stroke-width:3px"/><path d="M396.71157,360.63775c31.71561-35.19236,77.8349-57.53691,70.61212-121.77" style="fill:none;stroke:#000;stroke-miterlimit:10;stroke-width:3px"/><path d="M478.843,218.03717a29.04154,29.04154,0,0,0-4.29657,3.6443,24.59681,24.59681,0,0,0-7.22278,17.18628" style="fill:none;stroke:#000;stroke-miterlimit:10;stroke-width:3px"/><path d="M498.44089,212.05309a34.18866,34.18866,0,0,0-19.59785,5.9781" style="fill:none;stroke:#000;stroke-miterlimit:10;stroke-width:3px"/><path d="M533.14855,242.21883a27.5402,27.5402,0,0,0-6.89366-18.054c-6.32517-7.35444-16.42031-12.11178-27.814-12.11178" style="fill:none;stroke:#000;stroke-miterlimit:10;stroke-width:3px"/><path d="M498.44089,22.14239c-13.20686,0-23.89442,89.24056-23.89442,199.53908v.006" style="fill:none;stroke:#000;stroke-miterlimit:10;stroke-width:3px"/><path d="M504.64638,21.56792c-1.9149-1.05918-3.97941-.90958-6.20549.57447" style="fill:none;stroke:#000;stroke-miterlimit:10;stroke-width:3px"/><path d="M526.26087,224.16487c0-97.95936-5.28992-190.26975-20.73483-202.02248a6.29176,6.29176,0,0,0-.86171-.56849" style="fill:none;stroke:#000;stroke-miterlimit:10;stroke-width:3px"/><path d="M505.526,22.14239a2.555,2.555,0,0,0-.86171-.56849.022.022,0,0,1-.01795-.006C495.08981,18.157,489.1536,109.22269,478.843,218.03119v.006" style="fill:none;stroke:#000;stroke-miterlimit:10;stroke-width:3px"/><path d="M513.40109,381.86327v-.0359c.23936-3.14164.47872-6.19951.72407-9.19154" style="fill:none;stroke:#000;stroke-miterlimit:10;stroke-width:3px"/><path d="M383.54659,457.82516c0,68.70919,21.85386,113.3923,48.854,113.3923" style="fill:none;stroke:#000;stroke-miterlimit:10;stroke-width:3px"/><path d="M440.99374,360.63775c-31.75151,0-57.44715,43.46834-57.44715,97.18741" style="fill:none;stroke:#000;stroke-miterlimit:10;stroke-width:3px"/><path d="M474.54647,391.91653c0-17.288-15.00208-31.27878-33.55273-31.27878" style="fill:none;stroke:#000;stroke-miterlimit:10;stroke-width:3px"/><path d="M467.32369,457.82516c0-36.43107,11.51935-56.79488,7.22278-65.90863" style="fill:none;stroke:#000;stroke-miterlimit:10;stroke-width:3px"/><path d="M467.32369,457.82516c-4.78727,45.80213,1.6157,76.52439,3.61438,76.52439" style="fill:none;stroke:#000;stroke-miterlimit:10;stroke-width:3px"/><path d="M432.40061,571.21746c21.29733,0,39.01619-10.61576,38.53746-36.86791" style="fill:none;stroke:#000;stroke-miterlimit:10;stroke-width:3px"/><g style="opacity:0.12"><path d="M716.9,578.19l.03.05c-55.18,26.11-88.97,48.33-124.66,112.29,0,7.06-37.39,12.78-83.59,12.78s-83.59-5.72-83.59-12.78c-34.29-61.47-66.85-84.39-118.32-109.26,31.34,11.54,100.33,24.03,197.84,24.03C614.03,605.3,687.99,592.05,716.9,578.19Z" style="fill:#86ff6c"/><path d="M292.41,574.48c4.95,2.3,9.73,4.55,14.36,6.79,51.47,24.87,84.03,47.79,118.32,109.26" style="fill:none;stroke:#000;stroke-miterlimit:10;stroke-width:3px"/><path d="M724.96,574.48c-2.73,1.27-5.4,2.52-8.03,3.76-55.18,26.11-88.97,48.33-124.66,112.29" style="fill:none;stroke:#000;stroke-miterlimit:10;stroke-width:3px"/><path d="M292.41,574.48a69.67265,69.67265,0,0,0,14.36,6.79c31.34,11.54,100.33,24.03,197.84,24.03" style="fill:none;stroke:#000;stroke-miterlimit:10;stroke-width:3px"/><path d="M504.61,605.3c109.42,0,183.38-13.25,212.29-27.11a49.719,49.719,0,0,0,8.06-4.71" style="fill:none;stroke:#000;stroke-miterlimit:10;stroke-width:3px"/><path d="M425.09,690.53c0,7.06,37.39,12.78,83.59,12.78" style="fill:none;stroke:#000;stroke-miterlimit:10;stroke-width:3px"/><path d="M508.68,703.31c46.2,0,83.59-5.72,83.59-12.78" style="fill:none;stroke:#000;stroke-miterlimit:10;stroke-width:3px"/></g><path d="M425.09262,690.52749c-37.38639-66.99714-72.69245-88.19416-132.68521-116.046" style="fill:none;stroke:#000;stroke-miterlimit:10;stroke-width:3px"/><path d="M592.271,690.52749c37.38638-66.99714,72.69244-88.19416,132.6852-116.046" style="fill:none;stroke:#000;stroke-miterlimit:10;stroke-width:3px"/><path d="M292.40741,574.48148C311.291,587.2172,387.31618,605.2963,504.60519,605.2963" style="fill:none;stroke:#000;stroke-miterlimit:10;stroke-width:3px"/><path d="M724.95622,573.48148c-20.697,15.40741-98.55544,31.81482-220.351,31.81482" style="fill:none;stroke:#000;stroke-miterlimit:10;stroke-width:3px"/></svg>